# xmcd CD database file
#
# Track frame offsets:
#	182
#	20025
#	38290
#	90592
#	100557
#	128082
#	141407
#	162695
#
# Disc length: 2306 seconds
#
# Revision: 0
# Processed by: cddbd v1.4PL0 Copyright (c) Steve Scherf et al.
# Submitted via: CDex 1.50Beta7
#
DISCID=60090008
DTITLE=Trevor Watts and Katrina Krimsky - Stella Malu
DYEAR=1981
DGENRE=Jazz
TTITLE0=Mial
TTITLE1=Stella Malu
TTITLE2=Duogeny
TTITLE3=Rhythm Circle
TTITLE4=Crystal Morning
TTITLE5=Song for Hans
TTITLE6=Moonbeams
TTITLE7=Villa in Brazil
EXTD=YEAR: 1981
EXTT0=
EXTT1=
EXTT2=
EXTT3=
EXTT4=
EXTT5=
EXTT6=
EXTT7=
PLAYORDER=
